<svg preserveAspectRatio="none" width="100%" height="100%" overflow="visible" style="display: block;" viewBox="0 0 19.3193 16.8496" fill="none" xmlns="http://www.w3.org/2000/svg">
<path id="Vector" d="M3.61914 14.291L1.06055 16.8496L0 15.7891L2.55859 13.2305L3.61914 14.291ZM19.3193 15.7891L18.2588 16.8496L15.7002 14.291L16.7607 13.2305L19.3193 15.7891ZM9.14648 0.929688C9.29616 0.469032 9.94798 0.469032 10.0977 0.929688L11.665 5.75195C11.7321 5.95779 11.9241 6.09765 12.1406 6.09766H17.2119C17.696 6.09789 17.8972 6.7172 17.5059 7.00195L17.2119 7.21484L13.4033 9.9834C13.2281 10.1107 13.1548 10.336 13.2217 10.542L14.7881 15.3652C14.9281 15.797 14.4739 16.1605 14.0938 15.9697L14.0195 15.9248L9.91602 12.9434C9.74082 12.8163 9.50326 12.8161 9.32812 12.9434L5.22559 15.9248L5.15137 15.9697C4.77107 16.161 4.31586 15.7972 4.45605 15.3652L6.02344 10.542C6.0819 10.3618 6.03284 10.1664 5.90234 10.0352L5.8418 9.9834L2.0332 7.21484L1.73926 7.00195C1.37212 6.73505 1.52572 6.17377 1.94531 6.10449L2.0332 6.09766H7.10449L7.18457 6.0918C7.341 6.06636 7.47644 5.96718 7.54883 5.82617L7.58008 5.75195L9.14648 0.929688ZM9.00684 6.21582C8.73909 7.03963 7.9707 7.59746 7.10449 7.59766H5.11035L6.72363 8.76953C7.4244 9.27886 7.71791 10.1819 7.4502 11.0059L6.83301 12.9014L8.44727 11.7305L8.58105 11.6406C9.21995 11.2506 10.0252 11.2505 10.6641 11.6406L10.7979 11.7305L12.4111 12.9023L11.7949 11.0059C11.5272 10.1818 11.8205 9.27882 12.5215 8.76953L14.1348 7.59766H12.1406C11.2743 7.59765 10.5061 7.03969 10.2383 6.21582L9.62207 4.31934L9.00684 6.21582ZM4.6377 2.55859L3.57715 3.61914L1.01855 1.06055L2.0791 0L4.6377 2.55859ZM18.2256 1.06055L15.667 3.61914L14.6064 2.55859L17.165 0L18.2256 1.06055Z" fill=" #3D3D3D"/>
</svg>
