<svg preserveAspectRatio="none" width="100%" height="100%" overflow="visible" style="display: block;" viewBox="0 0 18 18" fill="none" xmlns="http://www.w3.org/2000/svg">
<g id="Frame">
<path id="Vector" d="M3.75 3.75C3.74992 3.48607 3.81948 3.22679 3.95166 2.99834C4.08384 2.7699 4.27396 2.58037 4.50281 2.4489C4.73167 2.31743 4.99116 2.24867 5.25509 2.24956C5.51902 2.25046 5.77804 2.32098 6.006 2.454L15.0037 7.7025C15.2308 7.83426 15.4193 8.02331 15.5505 8.25075C15.6816 8.4782 15.7507 8.73607 15.7509 8.9986C15.7512 9.26113 15.6825 9.51913 15.5518 9.7468C15.421 9.97447 15.2328 10.1638 15.006 10.296L6.006 15.546C5.77804 15.679 5.51902 15.7495 5.25509 15.7504C4.99116 15.7513 4.73167 15.6826 4.50281 15.5511C4.27396 15.4196 4.08384 15.2301 3.95166 15.0017C3.81948 14.7732 3.74992 14.5139 3.75 14.25V3.75Z" stroke=" white" stroke-width="1.5" stroke-linecap="round" stroke-linejoin="round"/>
</g>
</svg>
