<svg preserveAspectRatio="none" width="100%" height="100%" overflow="visible" style="display: block;" viewBox="0 0 32 32" fill="none" xmlns="http://www.w3.org/2000/svg">
<g id="Frame">
<path id="Vector" d="M13.5346 7.53391L10.4912 10.5774L13.5346 13.6209" stroke=" black" stroke-width="1.5" stroke-linecap="round" stroke-linejoin="round"/>
<path id="Vector_2" d="M19.6917 23.8838C21.1371 22.4384 21.9491 20.478 21.9491 18.4338C21.9491 16.3897 21.1371 14.4293 19.6917 12.9839C18.3491 11.6441 16.5596 10.8463 14.6656 10.7434L11.214 10.5617" stroke=" black" stroke-width="1.5" stroke-linecap="round" stroke-linejoin="round"/>
<path id="5" d="M11.5389 24.466C11.1127 24.466 10.7314 24.3861 10.3947 24.2263C10.0581 24.0644 9.79066 23.8428 9.59251 23.5615C9.39648 23.2803 9.29208 22.9585 9.2793 22.5963H10.4299C10.4512 22.8648 10.5673 23.0843 10.7782 23.2547C10.9892 23.423 11.2427 23.5072 11.5389 23.5072C11.7711 23.5072 11.9778 23.4539 12.1589 23.3474C12.34 23.2409 12.4828 23.0928 12.5872 22.9031C12.6916 22.7135 12.7427 22.4972 12.7406 22.2544C12.7427 22.0072 12.6905 21.7877 12.584 21.596C12.4775 21.4042 12.3315 21.254 12.1461 21.1453C11.9608 21.0345 11.7477 20.9791 11.5069 20.9791C11.3109 20.977 11.1181 21.0132 10.9284 21.0878C10.7388 21.1624 10.5886 21.2604 10.4778 21.3818L9.40714 21.2061L9.74911 17.8311H13.546V18.8218H10.7303L10.5417 20.5573H10.5801C10.7015 20.4145 10.873 20.2963 11.0946 20.2025C11.3162 20.1066 11.5591 20.0587 11.8233 20.0587C12.2196 20.0587 12.5733 20.1524 12.8844 20.3399C13.1955 20.5253 13.4405 20.781 13.6195 21.107C13.7985 21.433 13.888 21.8058 13.888 22.2256C13.888 22.6581 13.7878 23.0438 13.5875 23.3825C13.3894 23.7192 13.1135 23.9845 12.7598 24.1784C12.4082 24.3701 12.0012 24.466 11.5389 24.466Z" fill=" black"/>
</g>
</svg>
