<svg preserveAspectRatio="none" width="100%" height="100%" overflow="visible" style="display: block;" viewBox="0 0 88 88" fill="none" xmlns="http://www.w3.org/2000/svg">
<g id="icon_plaud_notepin">
<path id="Vector" d="M43.7598 13.1836C52.406 13.1838 59.415 20.1935 59.415 28.8398V58.4277C59.4149 67.0739 52.4059 74.0837 43.7598 74.084C35.1134 74.084 28.1037 67.0741 28.1035 58.4277V28.8398C28.1035 20.1934 35.1133 13.1836 43.7598 13.1836ZM43.7598 14.6836C35.9417 14.6836 29.6035 21.0218 29.6035 28.8398V58.4277C29.6037 66.2456 35.9418 72.584 43.7598 72.584C51.5775 72.5837 57.9149 66.2455 57.915 58.4277V28.8398C57.915 21.022 51.5776 14.6838 43.7598 14.6836ZM44.001 22C46.2461 22 48.0664 23.8203 48.0664 26.0654C48.0663 28.3105 46.2461 30.1309 44.001 30.1309C41.7559 30.1308 39.9357 28.3105 39.9355 26.0654C39.9355 23.8203 41.7559 22.0001 44.001 22Z" fill="var(--fill-0, #ADADAD)"/>
</g>
</svg>
