<svg preserveAspectRatio="none" width="100%" height="100%" overflow="visible" style="display: block;" viewBox="0 0 194 194" fill="none" xmlns="http://www.w3.org/2000/svg">
<g id="Ellipse 2">
<mask id="path-1-inside-1_0_71" fill="white">
<path d="M194 97C194 150.572 150.572 194 97 194C43.4284 194 0 150.572 0 97C0 43.4284 43.4284 0 97 0C150.572 0 194 43.4284 194 97Z"/>
</mask>
<g clip-path="url(#paint0_angular_0_71_clip_path)" data-figma-skip-parse="true" mask="url(#path-1-inside-1_0_71)"><g transform="matrix(-0.0287969 -0.0753519 0.0753519 -0.0543167 68.2031 118.648)"><foreignObject x="-1795.05" y="-1795.05" width="3590.1" height="3590.1"><div xmlns="http://www.w3.org/1999/xhtml" style="background:conic-gradient(from 90deg,rgba(255, 255, 255, 1) 0deg,rgba(193, 232, 254, 1) 47.976deg,rgba(75, 144, 184, 1) 105.577deg,rgba(193, 219, 233, 1) 240.577deg,rgba(255, 255, 255, 1) 360deg);height:100%;width:100%;opacity:1"></div></foreignObject></g></g><path d="M194 97H193C193 150.019 150.019 193 97 193V194V195C151.124 195 195 151.124 195 97H194ZM97 194V193C43.9807 193 1 150.019 1 97H0H-1C-1 151.124 42.8761 195 97 195V194ZM0 97H1C1 43.9807 43.9807 1 97 1V0V-1C42.8761 -1 -1 42.8761 -1 97H0ZM97 0V1C150.019 1 193 43.9807 193 97H194H195C195 42.8761 151.124 -1 97 -1V0Z" data-figma-gradient-fill="{&#34;type&#34;:&#34;GRADIENT_ANGULAR&#34;,&#34;stops&#34;:[{&#34;color&#34;:{&#34;r&#34;:0.75686275959014893,&#34;g&#34;:0.90980392694473267,&#34;b&#34;:0.99607843160629272,&#34;a&#34;:1.0},&#34;position&#34;:0.13326662778854370},{&#34;color&#34;:{&#34;r&#34;:0.29411765933036804,&#34;g&#34;:0.56470590829849243,&#34;b&#34;:0.72156864404678345,&#34;a&#34;:1.0},&#34;position&#34;:0.29326921701431274},{&#34;color&#34;:{&#34;r&#34;:0.75719875097274780,&#34;g&#34;:0.85906058549880981,&#34;b&#34;:0.91753679513931274,&#34;a&#34;:1.0},&#34;position&#34;:0.66826921701431274},{&#34;color&#34;:{&#34;r&#34;:1.0,&#34;g&#34;:1.0,&#34;b&#34;:1.0,&#34;a&#34;:1.0},&#34;position&#34;:1.0}],&#34;stopsVar&#34;:[{&#34;color&#34;:{&#34;r&#34;:0.75686275959014893,&#34;g&#34;:0.90980392694473267,&#34;b&#34;:0.99607843160629272,&#34;a&#34;:1.0},&#34;position&#34;:0.13326662778854370},{&#34;color&#34;:{&#34;r&#34;:0.29411765933036804,&#34;g&#34;:0.56470590829849243,&#34;b&#34;:0.72156864404678345,&#34;a&#34;:1.0},&#34;position&#34;:0.29326921701431274},{&#34;color&#34;:{&#34;r&#34;:0.75719875097274780,&#34;g&#34;:0.85906058549880981,&#34;b&#34;:0.91753679513931274,&#34;a&#34;:1.0},&#34;position&#34;:0.66826921701431274},{&#34;color&#34;:{&#34;r&#34;:1.0,&#34;g&#34;:1.0,&#34;b&#34;:1.0,&#34;a&#34;:1.0},&#34;position&#34;:1.0}],&#34;transform&#34;:{&#34;m00&#34;:-57.593738555908203,&#34;m01&#34;:150.70387268066406,&#34;m02&#34;:21.648056030273438,&#34;m10&#34;:-150.70387268066406,&#34;m11&#34;:-108.63340759277344,&#34;m12&#34;:248.31669616699219},&#34;opacity&#34;:1.0,&#34;blendMode&#34;:&#34;NORMAL&#34;,&#34;visible&#34;:true}" mask="url(#path-1-inside-1_0_71)"/>
</g>
<defs>
<clipPath id="paint0_angular_0_71_clip_path"><path d="M194 97H193C193 150.019 150.019 193 97 193V194V195C151.124 195 195 151.124 195 97H194ZM97 194V193C43.9807 193 1 150.019 1 97H0H-1C-1 151.124 42.8761 195 97 195V194ZM0 97H1C1 43.9807 43.9807 1 97 1V0V-1C42.8761 -1 -1 42.8761 -1 97H0ZM97 0V1C150.019 1 193 43.9807 193 97H194H195C195 42.8761 151.124 -1 97 -1V0Z" mask="url(#path-1-inside-1_0_71)"/></clipPath></defs>
</svg>
