<svg preserveAspectRatio="none" width="100%" height="100%" overflow="visible" style="display: block;" viewBox="0 0 32 32" fill="none" xmlns="http://www.w3.org/2000/svg">
<g id="Frame">
<path id="Vector" d="M18.5298 7.53391L21.5733 10.5774L18.5298 13.6209" stroke=" black" stroke-width="1.5" stroke-linecap="round" stroke-linejoin="round"/>
<path id="Vector_2" d="M12.3728 23.8838C10.9274 22.4384 10.1153 20.478 10.1153 18.4338C10.1153 16.3897 10.9274 14.4293 12.3728 12.9839C13.7154 11.6441 15.5049 10.8463 17.3988 10.7434L20.8504 10.5617" stroke=" black" stroke-width="1.5" stroke-linecap="round" stroke-linejoin="round"/>
<path id="5" d="M20.4363 24.466C20.0102 24.466 19.6288 24.3861 19.2922 24.2263C18.9555 24.0644 18.6881 23.8428 18.49 23.5615C18.2939 23.2803 18.1895 22.9585 18.1768 22.5963H19.3273C19.3486 22.8648 19.4648 23.0843 19.6757 23.2547C19.8866 23.423 20.1402 23.5072 20.4363 23.5072C20.6686 23.5072 20.8753 23.4539 21.0564 23.3474C21.2375 23.2409 21.3802 23.0928 21.4846 22.9031C21.589 22.7135 21.6402 22.4972 21.6381 22.2544C21.6402 22.0072 21.588 21.7877 21.4814 21.596C21.3749 21.4042 21.229 21.254 21.0436 21.1453C20.8582 21.0345 20.6452 20.9791 20.4044 20.9791C20.2084 20.977 20.0155 21.0132 19.8259 21.0878C19.6363 21.1624 19.4861 21.2604 19.3753 21.3818L18.3046 21.2061L18.6466 17.8311H22.4434V18.8218H19.6278L19.4392 20.5573H19.4775C19.599 20.4145 19.7705 20.2963 19.9921 20.2025C20.2137 20.1066 20.4566 20.0587 20.7208 20.0587C21.1171 20.0587 21.4708 20.1524 21.7819 20.3399C22.093 20.5253 22.338 20.781 22.517 21.107C22.6959 21.433 22.7854 21.8058 22.7854 22.2256C22.7854 22.6581 22.6853 23.0438 22.485 23.3825C22.2868 23.7192 22.0109 23.9845 21.6572 24.1784C21.3057 24.3701 20.8987 24.466 20.4363 24.466Z" fill=" black"/>
</g>
</svg>
