<svg preserveAspectRatio="none" width="100%" height="100%" overflow="visible" style="display: block;" viewBox="0 0 32 32" fill="none" xmlns="http://www.w3.org/2000/svg">
<g id="icon_plaud_notepin">
<path id="Vector" d="M15.8906 1.58301C20.0467 1.58302 23.4159 4.95241 23.416 9.1084V22.5576C23.416 26.7137 20.0468 30.083 15.8906 30.083C11.7345 30.083 8.36524 26.7138 8.36523 22.5576V9.1084C8.3654 4.9524 11.7346 1.58301 15.8906 1.58301ZM15.8906 3.08301C12.563 3.08301 9.8654 5.78082 9.86523 9.1084V22.5576C9.86524 25.8853 12.5629 28.583 15.8906 28.583C19.2183 28.583 21.916 25.8853 21.916 22.5576V9.1084C21.9159 5.78083 19.2182 3.08302 15.8906 3.08301ZM16.001 6C17.0212 6.00026 17.8485 6.82737 17.8486 7.84766C17.8486 8.86802 17.0213 9.69505 16.001 9.69531C14.9805 9.69531 14.1523 8.86818 14.1523 7.84766C14.1524 6.82721 14.9805 6 16.001 6Z" fill="#3D3D3D"/>
</g>
</svg>
