<svg preserveAspectRatio="none" width="100%" height="100%" overflow="visible" style="display: block;" viewBox="0 0 16.543 15.8994" fill="none" xmlns="http://www.w3.org/2000/svg">
<path id="Vector" d="M8.59082 0.396484L9.39453 1.89648H7.69238L7.48047 1.5H2.11719C1.77645 1.50041 1.5 1.77733 1.5 2.11816C1.50031 2.45217 1.76617 2.72267 2.09766 2.7334H16.543V15.8994H3.75C1.67915 15.8992 9.34528e-05 14.2203 0 12.1494V2.15723H0.00195312C0.00171407 2.14422 3.57763e-06 2.13122 0 2.11816C0 0.948907 0.948026 0.000406682 2.11719 0H8.37891L8.59082 0.396484ZM1.5 12.1494C1.50009 13.3919 2.50758 14.3992 3.75 14.3994H15.043V4.2334H7.92969V4.23535H2.11719C2.10413 4.23535 2.09113 4.23364 2.07812 4.2334H2.07617C2.01791 4.23339 1.96033 4.22968 1.90332 4.22461C1.90071 4.22435 1.89812 4.22391 1.89551 4.22363C1.75967 4.21102 1.62715 4.18609 1.5 4.14941V12.1494Z" fill="#7A7A7A"/>
</svg>
