<svg preserveAspectRatio="none" width="100%" height="100%" overflow="visible" style="display: block;" viewBox="0 0 18.5664 21.7666" fill="none" xmlns="http://www.w3.org/2000/svg">
<path id="Vector" d="M1.5 12.4834C1.50024 16.7818 4.9848 20.2665 9.2832 20.2666C13.5816 20.2665 17.0662 16.7818 17.0664 12.4834V10.3496H18.5664V12.4834C18.5662 17.6102 14.41 21.7665 9.2832 21.7666C4.15637 21.7665 0.000243676 17.6102 0 12.4834V10.3496H1.5V12.4834ZM9.2832 0C12.6427 0.000176009 15.367 2.72353 15.3672 6.08301V12.4834C15.3669 15.8428 12.6426 18.5662 9.2832 18.5664C5.92377 18.5662 3.20044 15.8428 3.2002 12.4834V6.08301C3.20037 2.72354 5.92373 0.000175741 9.2832 0ZM9.2832 1.5C6.75216 1.50018 4.70037 3.55196 4.7002 6.08301V12.4834C4.70044 15.0144 6.7522 17.0662 9.2832 17.0664C11.8142 17.0662 13.8669 15.0144 13.8672 12.4834V6.08301C13.867 3.55196 11.8142 1.50018 9.2832 1.5Z" fill="white"/>
</svg>
