<svg preserveAspectRatio="none" width="100%" height="100%" overflow="visible" style="display: block;" viewBox="0 0 18.3 18.3" fill="none" xmlns="http://www.w3.org/2000/svg">
<g id="Vector">
<path fill-rule="evenodd" clip-rule="evenodd" d="M10.7145 1.97852C10.3155 0.340494 7.98446 0.340494 7.58545 1.97852C7.52588 2.22466 7.40903 2.45326 7.24442 2.64571C7.07981 2.83816 6.87209 2.98903 6.63816 3.08604C6.40423 3.18305 6.15069 3.22346 5.89819 3.20398C5.64569 3.1845 5.40136 3.10568 5.18508 2.97393C3.74443 2.09612 2.09588 3.74465 2.97371 5.18527C3.54072 6.11558 3.03776 7.3294 1.97933 7.58666C0.340225 7.98461 0.340225 10.3167 1.97933 10.7136C2.22554 10.7733 2.45418 10.8902 2.64663 11.0549C2.83909 11.2197 2.98992 11.4275 3.08684 11.6616C3.18376 11.8956 3.22403 12.1493 3.20437 12.4018C3.18471 12.6544 3.10568 12.8988 2.97371 13.115C2.09588 14.5556 3.74443 16.2041 5.18508 15.3263C5.40132 15.1944 5.64567 15.1153 5.89824 15.0957C6.15081 15.076 6.40445 15.1163 6.63851 15.2132C6.87257 15.3101 7.08043 15.4609 7.24517 15.6534C7.4099 15.8458 7.52685 16.0745 7.5865 16.3207C7.98446 17.9598 10.3166 17.9598 10.7135 16.3207C10.7733 16.0746 10.8904 15.8461 11.0552 15.6538C11.22 15.4615 11.4278 15.3108 11.6618 15.2139C11.8958 15.117 12.1493 15.0767 12.4018 15.0962C12.6543 15.1158 12.8986 15.1946 13.1149 15.3263C14.5556 16.2041 16.2041 14.5556 15.3263 13.115C15.1946 12.8987 15.1157 12.6544 15.0962 12.4019C15.0766 12.1494 15.1169 11.8958 15.2138 11.6619C15.3107 11.4279 15.4615 11.2201 15.6538 11.0553C15.8461 10.8905 16.0746 10.7735 16.3207 10.7136C17.9598 10.3156 17.9598 7.98356 16.3207 7.58666C16.0745 7.52701 15.8458 7.41006 15.6534 7.24533C15.4609 7.08059 15.3101 6.87274 15.2132 6.63868C15.1162 6.40462 15.076 6.15099 15.0956 5.89842C15.1153 5.64586 15.1943 5.40151 15.3263 5.18527C16.2041 3.74465 14.5556 2.09612 13.1149 2.97393C12.8987 3.1059 12.6543 3.18493 12.4018 3.20459C12.1492 3.22425 11.8955 3.18398 11.6615 3.08706C11.4274 2.99015 11.2196 2.83932 11.0548 2.64687C10.8901 2.45441 10.7731 2.22577 10.7135 1.97957L10.7145 1.97852Z" stroke="#858585" stroke-width="1.5"/>
<path d="M11.0167 9.15C11.0167 10.1809 10.1809 11.0167 9.15 11.0167C8.11907 11.0167 7.28333 10.1809 7.28333 9.15C7.28333 8.11907 8.11907 7.28333 9.15 7.28333C10.1809 7.28333 11.0167 8.11907 11.0167 9.15Z" stroke="#858585" stroke-width="1.5"/>
</g>
</svg>
